PathFileType  4	(X/Y/Z) C:\Inversekin\DARPA\DARPA11\Files_W_HJCs\
DataRate	CameraRate	NumFrames	NumMarkers	Units	OrigDataRate	OrigDataStartFrame	OrigNumFrames
  100.0		  100.0		    11		     41		 mm	  100.0	      115	    153
Frame#	Time	R.Shoulder			L.Shoulder			R.Clavicle			L.Clavicle			R.Biceps			R.Elbow			R.Forearm			R.Wrist			L.Biceps			L.Elbow			L.Forearm			L.Wrist			R.ASIS			L.ASIS			R.PSIS			S2			L.PSIS			R.TH1			R.TH2			R.TH3			R.Knee			R.SH1			R.SH2			R.SH3			R.SH4			R.Ankle			R.Heel			R.MT5			R.Toe			L.TH1			L.TH2			L.TH3			L.TH4			L.Knee			L.SH1			L.SH2			L.SH3			L.Ankle			L.Heel			L.MT5			L.Toe			
		X1	Y1	Z1	X2	Y2	Z2	X3	Y3	Z3	X4	Y4	Z4	X5	Y5	Z5	X6	Y6	Z6	X7	Y7	Z7	X8	Y8	Z8	X9	Y9	Z9	X10	Y10	Z10	X11	Y11	Z11	X12	Y12	Z12	X13	Y13	Z13	X14	Y14	Z14	X15	Y15	Z15	X16	Y16	Z16	X17	Y17	Z17	X18	Y18	Z18	X19	Y19	Z19	X20	Y20	Z20	X21	Y21	Z21	X22	Y22	Z22	X23	Y23	Z23	X24	Y24	Z24	X25	Y25	Z25	X26	Y26	Z26	X27	Y27	Z27	X28	Y28	Z28	X29	Y29	Z29	X30	Y30	Z30	X31	Y31	Z31	X32	Y32	Z32	X33	Y33	Z33	X34	Y34	Z34	X35	Y35	Z35	X36	Y36	Z36	X37	Y37	Z37	X38	Y38	Z38	X39	Y39	Z39	X40	Y40	Z40	X41	Y41	Z41	

115	1.14000	409.577	1565.567	-300.118	678.753	1567.927	-291.751	508.314	1507.156	-193.316	564.739	1508.227	-191.414	203.455	1573.496	-313.324	114.911	1600.354	-359.854	113.607	1588.412	-208.047	104.489	1571.126	-93.245	859.830	1543.703	-312.985	981.403	1543.932	-323.540	986.995	1567.221	-180.041	980.580	1570.576	-69.117	408.314	1022.003	-160.271	664.399	1012.122	-177.353	478.441	1035.996	-375.833	522.033	1014.881	-392.469	570.555	1034.039	-381.795	314.750	795.779	-205.956	310.030	790.588	-314.792	322.873	662.162	-318.720	326.095	528.973	-277.138	308.507	437.408	-267.686	288.999	326.630	-274.273	305.945	438.416	-351.897	293.669	318.867	-358.957	294.835	113.877	-314.027	337.501	37.657	-390.983	252.342	34.030	-201.122	350.884	56.063	-91.510	709.052	793.549	-172.370	701.845	662.352	-185.545	752.507	811.183	-268.469	735.314	678.838	-298.204	710.580	531.527	-296.442	716.995	426.622	-273.771	739.736	445.575	-366.614	747.510	329.710	-380.827	753.157	115.597	-331.600	706.920	36.153	-416.507	801.715	39.425	-231.019	712.902	58.009	-120.685
116	1.15000	409.402	1565.555	-300.228	678.726	1567.836	-291.970	508.327	1507.185	-193.405	564.743	1508.226	-191.583	203.441	1573.417	-313.396	114.811	1600.313	-359.918	113.611	1588.388	-208.127	104.560	1571.030	-93.298	859.906	1543.803	-313.032	981.334	1544.148	-323.393	986.864	1567.348	-179.776	980.462	1570.400	-68.817	408.274	1021.934	-160.318	664.403	1012.027	-177.387	478.469	1035.935	-375.869	521.984	1014.776	-392.476	570.587	1033.865	-381.848	314.724	795.723	-206.021	310.035	790.579	-314.849	322.859	662.029	-318.771	326.092	528.874	-277.182	308.349	437.344	-267.761	288.967	326.562	-274.305	305.898	438.289	-351.932	293.591	318.755	-358.983	294.828	113.846	-314.021	337.401	37.599	-390.991	252.353	33.995	-201.131	350.868	55.935	-91.515	709.089	793.455	-172.452	701.870	662.306	-185.605	752.526	811.154	-268.526	735.292	678.740	-298.272	710.574	531.401	-296.495	717.030	426.610	-273.842	739.730	445.551	-366.652	747.541	329.668	-380.842	753.291	115.493	-331.576	706.910	36.077	-416.513	801.740	39.350	-231.013	712.933	57.936	-120.686
117	1.16000	409.429	1565.505	-300.340	678.608	1567.732	-292.234	508.304	1507.200	-193.542	564.881	1508.299	-191.778	203.352	1573.367	-313.454	114.771	1600.231	-359.995	113.562	1588.417	-208.238	104.732	1571.074	-93.365	859.834	1544.003	-312.972	981.094	1544.640	-323.172	986.879	1567.560	-179.481	980.388	1570.267	-68.518	408.223	1021.883	-160.342	664.387	1012.057	-177.430	478.412	1035.898	-375.886	521.904	1014.739	-392.484	570.466	1033.833	-381.885	314.699	795.738	-206.060	310.006	790.500	-314.913	322.861	661.987	-318.816	326.129	528.816	-277.290	308.343	437.308	-267.799	288.926	326.489	-274.313	305.883	438.263	-351.969	293.582	318.791	-358.989	294.805	113.806	-314.035	337.365	37.550	-390.983	252.336	33.900	-201.124	350.873	55.902	-91.518	709.067	793.510	-172.469	701.912	662.216	-185.654	752.500	811.098	-268.571	735.450	678.763	-298.332	710.587	531.380	-296.529	717.040	426.607	-273.858	739.725	445.538	-366.672	747.552	329.603	-380.860	753.230	115.452	-331.601	706.893	36.053	-416.510	801.754	39.299	-231.014	712.894	57.826	-120.695
118	1.17000	409.492	1565.424	-300.480	678.577	1567.616	-292.413	508.272	1507.290	-193.709	564.995	1508.353	-191.937	203.390	1573.471	-313.539	114.769	1600.250	-360.063	113.539	1588.398	-208.317	104.825	1571.132	-93.405	859.790	1544.377	-312.883	981.167	1545.261	-322.961	986.981	1567.977	-179.131	980.308	1570.212	-68.247	408.095	1021.916	-160.378	664.324	1012.107	-177.452	478.426	1035.948	-375.896	521.826	1014.714	-392.502	570.354	1033.758	-381.884	314.664	795.657	-206.130	310.019	790.455	-314.948	322.861	661.966	-318.848	326.035	528.869	-277.361	308.252	437.269	-267.825	288.843	326.432	-274.356	305.842	438.163	-351.990	293.570	318.752	-359.007	294.855	113.793	-314.059	337.350	37.476	-390.998	252.336	33.928	-201.125	350.804	55.945	-91.516	709.064	793.497	-172.479	701.900	662.231	-185.665	752.330	811.043	-268.654	735.435	678.739	-298.371	710.599	531.363	-296.543	717.028	426.628	-273.871	739.646	445.561	-366.713	747.547	329.577	-380.880	753.197	115.520	-331.611	706.851	36.022	-416.500	801.760	39.329	-231.003	712.856	57.805	-120.711
119	1.18000	409.388	1565.429	-300.631	678.470	1567.498	-292.630	508.300	1507.444	-193.934	565.115	1508.536	-192.105	203.379	1573.425	-313.597	114.782	1600.281	-360.143	113.602	1588.522	-208.374	104.870	1571.252	-93.495	859.729	1544.786	-312.764	981.149	1545.958	-322.571	986.705	1568.236	-178.732	980.249	1570.264	-67.890	408.050	1021.885	-160.407	664.214	1012.135	-177.516	478.360	1035.932	-375.921	521.601	1014.696	-392.544	570.192	1033.691	-381.922	314.650	795.580	-206.159	310.120	790.465	-314.998	322.925	661.948	-318.901	326.002	528.890	-277.399	308.257	437.313	-267.827	288.851	326.491	-274.358	305.817	438.167	-352.012	293.552	318.716	-359.031	294.788	113.804	-314.009	337.356	37.497	-391.002	252.322	33.921	-201.107	350.742	55.944	-91.514	709.039	793.557	-172.517	701.891	662.268	-185.700	752.110	811.014	-268.747	735.417	678.895	-298.408	710.586	531.433	-296.558	717.008	426.680	-273.885	739.610	445.607	-366.749	747.518	329.599	-380.887	753.206	115.500	-331.615	706.768	35.941	-416.489	801.737	39.360	-231.021	712.938	57.874	-120.704
120	1.19000	409.303	1565.414	-300.815	678.457	1567.405	-292.857	508.379	1507.495	-194.177	565.145	1508.662	-192.250	203.370	1573.489	-313.671	114.858	1600.340	-360.247	113.500	1588.644	-208.461	104.953	1571.345	-93.591	859.506	1545.193	-312.667	981.119	1546.612	-322.252	986.613	1568.636	-178.272	980.124	1570.324	-67.458	408.032	1021.888	-160.406	664.116	1012.219	-177.549	478.357	1036.037	-375.928	521.486	1014.602	-392.565	570.057	1033.722	-381.960	314.637	795.680	-206.159	309.995	790.468	-314.996	322.928	661.948	-318.907	325.981	528.873	-277.430	308.233	437.307	-267.830	288.830	326.468	-274.365	305.814	438.188	-352.020	293.518	318.660	-359.034	294.866	113.800	-314.037	337.381	37.510	-391.000	252.323	33.933	-201.129	350.690	55.970	-91.523	709.008	793.611	-172.538	701.728	662.415	-185.744	752.078	811.093	-268.759	735.394	678.860	-298.421	710.557	531.495	-296.589	716.972	426.783	-273.960	739.428	445.599	-366.816	747.460	329.687	-380.901	753.170	115.593	-331.615	706.615	35.889	-416.519	801.718	39.405	-231.012	712.766	57.883	-120.707
121	1.20000	409.296	1565.436	-300.979	678.389	1567.428	-293.033	508.275	1507.590	-194.334	565.203	1508.785	-192.381	203.289	1573.609	-313.757	114.810	1600.429	-360.332	113.470	1588.738	-208.546	104.943	1571.550	-93.658	859.318	1545.579	-312.555	980.907	1547.379	-322.000	986.587	1569.071	-177.892	980.257	1570.480	-67.090	408.004	1021.881	-160.430	663.980	1012.246	-177.620	478.252	1036.072	-375.955	521.390	1014.614	-392.584	569.835	1033.766	-382.008	314.630	795.602	-206.171	309.986	790.497	-315.010	322.946	661.977	-318.928	325.994	528.937	-277.430	308.203	437.299	-267.843	288.834	326.554	-274.377	305.809	438.223	-352.032	293.511	318.656	-359.011	294.857	113.758	-314.042	337.388	37.554	-390.998	252.338	33.903	-201.133	350.707	56.018	-91.533	708.857	793.707	-172.591	701.717	662.418	-185.766	752.046	811.197	-268.788	735.398	679.079	-298.449	710.544	531.663	-296.609	716.919	426.852	-273.910	739.383	445.671	-366.834	747.417	329.763	-380.930	753.131	115.635	-331.630	706.524	35.916	-416.532	801.694	39.483	-231.016	712.701	57.965	-120.725
122	1.21000	409.155	1565.416	-301.171	678.372	1567.462	-293.187	508.188	1507.492	-194.595	565.224	1508.811	-192.515	203.360	1573.642	-313.841	114.770	1600.505	-360.433	113.563	1588.880	-208.643	104.958	1571.777	-93.789	859.221	1546.114	-312.378	981.014	1548.335	-321.723	986.588	1569.640	-177.497	980.041	1570.571	-66.732	407.986	1021.921	-160.445	663.937	1012.381	-177.668	478.189	1036.143	-375.970	521.332	1014.575	-392.610	569.652	1033.794	-382.087	314.628	795.596	-206.173	309.900	790.460	-314.997	322.933	661.951	-318.925	326.009	528.882	-277.408	308.188	437.286	-267.845	288.726	326.567	-274.387	305.781	438.218	-352.018	293.487	318.649	-359.012	294.854	113.718	-314.037	337.347	37.546	-391.003	252.354	33.938	-201.126	350.632	56.080	-91.533	708.823	793.770	-172.606	701.558	662.585	-185.717	752.037	811.272	-268.807	735.202	679.016	-298.447	710.506	531.704	-296.642	716.883	426.882	-273.927	739.206	445.627	-366.856	747.374	329.834	-380.938	753.137	115.638	-331.628	706.424	35.938	-416.535	801.652	39.577	-230.990	712.637	58.010	-120.714
123	1.22000	409.026	1565.487	-301.326	678.146	1567.487	-293.410	508.776	1507.105	-195.134	565.061	1508.842	-192.668	203.347	1573.689	-313.983	114.732	1600.591	-360.598	113.586	1588.985	-208.701	104.885	1572.026	-93.913	859.221	1546.764	-312.252	980.652	1549.086	-321.394	986.496	1570.117	-177.206	979.950	1570.680	-66.413	407.955	1021.927	-160.488	663.817	1012.388	-177.768	478.116	1036.104	-376.018	521.139	1014.510	-392.649	569.618	1033.782	-382.180	314.626	795.572	-206.167	309.850	790.448	-314.986	322.799	662.040	-318.864	326.011	528.867	-277.387	308.179	437.267	-267.832	288.749	326.523	-274.337	305.763	438.231	-352.007	293.490	318.627	-359.004	294.864	113.730	-314.042	337.324	37.570	-391.002	252.337	33.944	-201.137	350.599	56.118	-91.551	708.775	793.841	-172.611	701.499	662.675	-185.706	752.015	811.348	-268.829	735.332	679.127	-298.493	710.508	531.758	-296.643	716.834	426.935	-273.920	739.208	445.644	-366.866	747.325	329.919	-380.954	753.081	115.803	-331.632	706.372	35.971	-416.538	801.597	39.707	-230.982	712.555	58.078	-120.733
124	1.23000	408.968	1565.471	-301.482	678.052	1567.491	-293.549	508.662	1507.213	-195.279	564.976	1508.885	-192.803	203.259	1573.803	-314.172	114.720	1600.682	-360.767	113.577	1589.179	-208.838	104.880	1572.311	-94.080	859.074	1547.271	-312.132	980.499	1549.979	-321.170	986.267	1570.580	-176.934	979.729	1570.897	-66.096	407.923	1021.945	-160.529	663.786	1012.431	-177.812	478.037	1036.040	-376.076	521.121	1014.496	-392.680	569.559	1033.808	-382.240	314.599	795.577	-206.145	309.781	790.462	-314.965	322.763	662.029	-318.846	325.986	528.854	-277.356	308.075	437.356	-267.855	288.740	326.529	-274.333	305.723	438.177	-351.991	293.470	318.602	-358.987	294.851	113.723	-314.048	337.315	37.587	-391.015	252.320	33.943	-201.121	350.553	56.154	-91.561	708.737	793.925	-172.629	701.461	662.748	-185.710	752.024	811.431	-268.825	735.138	679.221	-298.461	710.502	531.830	-296.643	716.760	426.958	-273.946	739.181	445.668	-366.867	747.269	330.020	-380.971	753.077	115.776	-331.636	706.323	36.049	-416.542	801.609	39.728	-230.984	712.529	58.141	-120.732
125	1.24000	408.953	1565.473	-301.680	678.070	1567.605	-293.724	508.570	1507.269	-195.429	564.838	1508.882	-192.962	203.207	1573.908	-314.353	114.810	1600.826	-360.968	113.491	1589.328	-209.014	104.796	1572.638	-94.278	858.975	1547.764	-311.987	980.336	1550.699	-320.880	986.008	1571.049	-176.645	979.500	1571.131	-65.826	407.902	1021.978	-160.571	663.779	1012.503	-177.883	477.993	1036.010	-376.143	521.123	1014.535	-392.728	569.574	1033.791	-382.312	314.587	795.620	-206.132	309.741	790.417	-314.928	322.706	661.979	-318.791	325.949	528.847	-277.353	308.062	437.326	-267.828	288.716	326.470	-274.299	305.688	438.141	-351.959	293.447	318.625	-358.994	294.862	113.759	-314.058	337.263	37.566	-391.014	252.197	34.020	-201.089	350.449	56.153	-91.558	708.731	793.933	-172.659	701.490	662.691	-185.738	752.015	811.485	-268.858	735.119	679.194	-298.470	710.503	531.890	-296.641	716.799	427.067	-273.955	739.031	445.648	-366.828	747.248	330.011	-380.985	753.052	115.840	-331.629	706.345	36.147	-416.552	801.600	39.722	-230.985	712.451	58.124	-120.745
